<svg width="357" height="364" viewBox="0 0 357 364" fill="none" xmlns="http://www.w3.org/2000/svg">
<path d="M68.2715 141.659L98.4215 208.889H91.4915L81.3215 186.839H53.4215L43.3415 208.889H36.1415L66.6515 141.659H68.2715ZM67.4615 155.969L56.3915 180.269H78.4415L67.4615 155.969ZM171.433 144.269H178.003V202.679H202.843V208.889H171.433V144.269ZM272.585 144.269H280.145L295.625 169.469L311.285 144.269H318.755L299.495 175.589L320.015 208.889H312.455L295.625 181.799L278.795 208.889H271.235L291.845 175.589L272.585 144.269Z" fill="white"/>
<path d="M68.2715 141.659L70.0964 140.84L68.2715 139.659V141.659ZM98.4215 208.889V210.889L100.246 208.07L98.4215 208.889ZM91.4915 208.889L89.6754 209.727L91.4915 210.889V208.889ZM81.3215 186.839L83.1376 186.001L81.3215 184.839V186.839ZM53.4215 186.839V184.839L51.6025 186.007L53.4215 186.839ZM43.3415 208.889V210.889L45.1604 209.72L43.3415 208.889ZM36.1415 208.889L34.3203 208.062L36.1415 210.889V208.889ZM66.6515 141.659V139.659L64.8303 140.832L66.6515 141.659ZM67.4615 155.969L69.2841 155.145L65.6415 155.14L67.4615 155.969ZM56.3915 180.269L54.5715 179.44L56.3915 182.269V180.269ZM78.4415 180.269V182.269L80.2641 179.445L78.4415 180.269ZM66.4466 142.477L96.5966 209.707L100.246 208.07L70.0964 140.84L66.4466 142.477ZM98.4215 206.889H91.4915V210.889H98.4215V206.889ZM93.3076 208.051L83.1376 186.001L79.5054 187.677L89.6754 209.727L93.3076 208.051ZM81.3215 184.839H53.4215V188.839H81.3215V184.839ZM51.6025 186.007L41.5225 208.057L45.1604 209.72L55.2404 187.67L51.6025 186.007ZM43.3415 206.889H36.1415V210.889H43.3415V206.889ZM37.9627 209.715L68.4727 142.485L64.8303 140.832L34.3203 208.062L37.9627 209.715ZM66.6515 143.659H68.2715V139.659H66.6515V143.659ZM65.6415 155.14L54.5715 179.44L58.2115 181.098L69.2815 156.798L65.6415 155.14ZM56.3915 182.269H78.4415V178.269H56.3915V182.269ZM80.2641 179.445L69.2841 155.145L65.6389 156.792L76.6189 181.092L80.2641 179.445ZM171.433 144.269V142.269L169.433 144.269H171.433ZM178.003 144.269H180.003L178.003 142.269V144.269ZM178.003 202.679H176.003L178.003 204.679V202.679ZM202.843 202.679H204.843L202.843 200.679V202.679ZM202.843 208.889V210.889L204.843 208.889H202.843ZM171.433 208.889H169.433L171.433 210.889V208.889ZM171.433 146.269H178.003V142.269H171.433V146.269ZM176.003 144.269V202.679H180.003V144.269H176.003ZM178.003 204.679H202.843V200.679H178.003V204.679ZM200.843 202.679V208.889H204.843V202.679H200.843ZM202.843 206.889H171.433V210.889H202.843V206.889ZM173.433 208.889V144.269H169.433V208.889H173.433ZM272.585 144.269V142.269L270.881 145.317L272.585 144.269ZM280.145 144.269L281.849 143.222L280.145 142.269V144.269ZM295.625 169.469L293.921 170.516L297.324 170.525L295.625 169.469ZM311.285 144.269V142.269L309.586 143.213L311.285 144.269ZM318.755 144.269L320.459 145.317L318.755 142.269V144.269ZM299.495 175.589L297.791 174.541L297.792 176.638L299.495 175.589ZM320.015 208.889V210.889L321.718 207.84L320.015 208.889ZM312.455 208.889L310.756 209.944L312.455 210.889V208.889ZM295.625 181.799L297.324 180.743L293.926 180.743L295.625 181.799ZM278.795 208.889V210.889L280.494 209.944L278.795 208.889ZM271.235 208.889L269.534 207.836L271.235 210.889V208.889ZM291.845 175.589L293.545 176.641L293.549 174.541L291.845 175.589ZM272.585 146.269H280.145V142.269H272.585V146.269ZM278.441 145.316L293.921 170.516L297.329 168.422L281.849 143.222L278.441 145.316ZM297.324 170.525L312.984 145.325L309.586 143.213L293.926 168.413L297.324 170.525ZM311.285 146.269H318.755V142.269H311.285V146.269ZM317.051 143.221L297.791 174.541L301.199 176.637L320.459 145.317L317.051 143.221ZM297.792 176.638L318.312 209.938L321.718 207.84L301.198 174.54L297.792 176.638ZM320.015 206.889H312.455V210.889H320.015V206.889ZM314.154 207.833L297.324 180.743L293.926 182.854L310.756 209.944L314.154 207.833ZM293.926 180.743L277.096 207.833L280.494 209.944L297.324 182.854L293.926 180.743ZM278.795 206.889H271.235V210.889H278.795V206.889ZM272.935 209.941L293.545 176.641L290.144 174.536L269.534 207.836L272.935 209.941ZM293.549 174.541L274.289 143.221L270.881 145.317L290.141 176.637L293.549 174.541Z" fill="white"/>
<path d="M68.2715 141.659L70.0964 140.84L68.2715 139.659V141.659ZM98.4215 208.889V210.889L100.246 208.07L98.4215 208.889ZM91.4915 208.889L89.6754 209.727L91.4915 210.889V208.889ZM81.3215 186.839L83.1376 186.001L81.3215 184.839V186.839ZM53.4215 186.839V184.839L51.6025 186.007L53.4215 186.839ZM43.3415 208.889V210.889L45.1604 209.72L43.3415 208.889ZM36.1415 208.889L34.3203 208.062L36.1415 210.889V208.889ZM66.6515 141.659V139.659L64.8303 140.832L66.6515 141.659ZM67.4615 155.969L69.2841 155.145L65.6415 155.14L67.4615 155.969ZM56.3915 180.269L54.5715 179.44L56.3915 182.269V180.269ZM78.4415 180.269V182.269L80.2641 179.445L78.4415 180.269ZM66.4466 142.477L96.5966 209.707L100.246 208.07L70.0964 140.84L66.4466 142.477ZM98.4215 206.889H91.4915V210.889H98.4215V206.889ZM93.3076 208.051L83.1376 186.001L79.5054 187.677L89.6754 209.727L93.3076 208.051ZM81.3215 184.839H53.4215V188.839H81.3215V184.839ZM51.6025 186.007L41.5225 208.057L45.1604 209.72L55.2404 187.67L51.6025 186.007ZM43.3415 206.889H36.1415V210.889H43.3415V206.889ZM37.9627 209.715L68.4727 142.485L64.8303 140.832L34.3203 208.062L37.9627 209.715ZM66.6515 143.659H68.2715V139.659H66.6515V143.659ZM65.6415 155.14L54.5715 179.44L58.2115 181.098L69.2815 156.798L65.6415 155.14ZM56.3915 182.269H78.4415V178.269H56.3915V182.269ZM80.2641 179.445L69.2841 155.145L65.6389 156.792L76.6189 181.092L80.2641 179.445ZM171.433 144.269V142.269L169.433 144.269H171.433ZM178.003 144.269H180.003L178.003 142.269V144.269ZM178.003 202.679H176.003L178.003 204.679V202.679ZM202.843 202.679H204.843L202.843 200.679V202.679ZM202.843 208.889V210.889L204.843 208.889H202.843ZM171.433 208.889H169.433L171.433 210.889V208.889ZM171.433 146.269H178.003V142.269H171.433V146.269ZM176.003 144.269V202.679H180.003V144.269H176.003ZM178.003 204.679H202.843V200.679H178.003V204.679ZM200.843 202.679V208.889H204.843V202.679H200.843ZM202.843 206.889H171.433V210.889H202.843V206.889ZM173.433 208.889V144.269H169.433V208.889H173.433ZM272.585 144.269V142.269L270.881 145.317L272.585 144.269ZM280.145 144.269L281.849 143.222L280.145 142.269V144.269ZM295.625 169.469L293.921 170.516L297.324 170.525L295.625 169.469ZM311.285 144.269V142.269L309.586 143.213L311.285 144.269ZM318.755 144.269L320.459 145.317L318.755 142.269V144.269ZM299.495 175.589L297.791 174.541L297.792 176.638L299.495 175.589ZM320.015 208.889V210.889L321.718 207.84L320.015 208.889ZM312.455 208.889L310.756 209.944L312.455 210.889V208.889ZM295.625 181.799L297.324 180.743L293.926 180.743L295.625 181.799ZM278.795 208.889V210.889L280.494 209.944L278.795 208.889ZM271.235 208.889L269.534 207.836L271.235 210.889V208.889ZM291.845 175.589L293.545 176.641L293.549 174.541L291.845 175.589ZM272.585 146.269H280.145V142.269H272.585V146.269ZM278.441 145.316L293.921 170.516L297.329 168.422L281.849 143.222L278.441 145.316ZM297.324 170.525L312.984 145.325L309.586 143.213L293.926 168.413L297.324 170.525ZM311.285 146.269H318.755V142.269H311.285V146.269ZM317.051 143.221L297.791 174.541L301.199 176.637L320.459 145.317L317.051 143.221ZM297.792 176.638L318.312 209.938L321.718 207.84L301.198 174.54L297.792 176.638ZM320.015 206.889H312.455V210.889H320.015V206.889ZM314.154 207.833L297.324 180.743L293.926 182.854L310.756 209.944L314.154 207.833ZM293.926 180.743L277.096 207.833L280.494 209.944L297.324 182.854L293.926 180.743ZM278.795 206.889H271.235V210.889H278.795V206.889ZM272.935 209.941L293.545 176.641L290.144 174.536L269.534 207.836L272.935 209.941ZM293.549 174.541L274.289 143.221L270.881 145.317L290.141 176.637L293.549 174.541Z" fill="url(#paint0_linear)"/>
<g style="mix-blend-mode:hard-light" filter="url(#filter0_f)">
<ellipse cx="178.5" cy="182" rx="172.5" ry="176" fill="url(#paint1_linear)"/>
<path d="M178.5 359C274.34 359 352 279.735 352 182C352 84.2646 274.34 5 178.5 5C82.6598 5 5 84.2646 5 182C5 279.735 82.6598 359 178.5 359Z" stroke="white" stroke-width="2" stroke-linecap="round" stroke-linejoin="bevel"/>
<path d="M178.5 359C274.34 359 352 279.735 352 182C352 84.2646 274.34 5 178.5 5C82.6598 5 5 84.2646 5 182C5 279.735 82.6598 359 178.5 359Z" stroke="url(#paint2_linear)" stroke-width="2" stroke-linecap="round" stroke-linejoin="bevel"/>
</g>
<defs>
<filter id="filter0_f" x="0" y="0" width="357" height="364" filterUnits="userSpaceOnUse" color-interpolation-filters="sRGB">
<feFlood flood-opacity="0" result="BackgroundImageFix"/>
<feBlend mode="normal" in="SourceGraphic" in2="BackgroundImageFix" result="shape"/>
<feGaussianBlur stdDeviation="2" result="effect1_foregroundBlur"/>
</filter>
<linearGradient id="paint0_linear" x1="178.5" y1="125.289" x2="178.5" y2="238.711" gradientUnits="userSpaceOnUse">
<stop offset="0.296875"/>
<stop offset="1" stop-color="white" stop-opacity="0"/>
</linearGradient>
<linearGradient id="paint1_linear" x1="178.5" y1="6" x2="178.5" y2="358" gradientUnits="userSpaceOnUse">
<stop offset="0.739583" stop-color="white" stop-opacity="0"/>
<stop offset="1" stop-color="white" stop-opacity="0.39"/>
</linearGradient>
<linearGradient id="paint2_linear" x1="178.5" y1="6" x2="178.5" y2="358" gradientUnits="userSpaceOnUse">
<stop offset="0.296875"/>
<stop offset="1" stop-color="white" stop-opacity="0"/>
</linearGradient>
</defs>
</svg>
